<svg width="71" height="70" viewBox="0 0 71 70" fill="none" xmlns="http://www.w3.org/2000/svg">
<path d="M0.503235 35C0.535593 29.1031 1.00154 23.4842 2.16641 18.8029C3.33129 14.0957 5.18863 10.3196 8.01669 7.50693C10.8318 4.68132 14.6112 2.8256 19.3224 1.66174C24.0078 0.497872 29.6316 0.0323296 35.5336 0C41.4357 0.0323296 47.0594 0.497872 51.7448 1.66174C56.4561 2.8256 60.2355 4.68132 63.0506 7.50693C65.8786 10.3131 67.736 14.0957 68.9008 18.8029C70.0657 23.4842 70.5317 29.1031 70.564 35C70.5317 40.8969 70.0657 46.5093 68.9008 51.1971C67.736 55.9043 65.8786 59.6804 63.0506 62.4931C60.2355 65.3187 56.4561 67.1744 51.7448 68.3383C47.0529 69.5021 41.4357 69.9677 35.5336 70C29.6316 69.9677 24.0078 69.5021 19.3224 68.3383C14.6112 67.1744 10.8318 65.3187 8.01669 62.4931C5.18863 59.6804 3.33129 55.9043 2.16641 51.1971C1.00154 46.5093 0.535593 40.8969 0.503235 35Z" fill="#CBCBCB"/>
<path d="M26.8425 25.9348C26.8425 30.2735 25.2828 33.7909 23.3673 33.7909C21.4452 33.7909 19.8856 30.2735 19.8856 25.9348C19.8856 21.6027 21.4452 18.0852 23.3673 18.0852C25.2828 18.0852 26.8425 21.6027 26.8425 25.9348Z" fill="#5A5A5A"/>
<path d="M51.1817 25.9348C51.1817 30.2735 49.6221 33.7909 47.7 33.7909C45.7845 33.7909 44.2249 30.2735 44.2249 25.9348C44.2249 21.6027 45.7845 18.0852 47.7 18.0852C49.6221 18.0852 51.1817 21.6027 51.1817 25.9348Z" fill="#5A5A5A"/>
<path d="M21.84 45.727C22.403 45.5783 22.9725 45.4619 23.542 45.3584C24.1115 45.2485 24.6745 45.158 25.244 45.0739C26.383 44.9058 27.5155 44.783 28.6545 44.6731C30.926 44.4661 33.1975 44.3692 35.469 44.3562C37.7405 44.3433 40.012 44.4144 42.2835 44.589C42.853 44.6343 43.4225 44.686 43.9855 44.7506C44.555 44.8088 45.1245 44.88 45.694 44.9575C46.257 45.0351 46.8265 45.1192 47.396 45.2227C47.9655 45.3196 48.5285 45.4296 49.098 45.5718C50.0817 45.8175 50.6771 46.8133 50.4312 47.7896C50.2629 48.4685 49.7322 48.9664 49.098 49.1216C48.5285 49.2638 47.9655 49.3738 47.396 49.4772C46.8265 49.5742 46.257 49.6583 45.694 49.7423C45.1245 49.8134 44.555 49.8846 43.9855 49.9428C43.4225 50.0074 42.853 50.0592 42.2835 50.1044C40.012 50.2855 37.7405 50.3566 35.469 50.3372C33.1975 50.3243 30.926 50.2273 28.6545 50.0204C27.5155 49.9169 26.383 49.7876 25.244 49.6195C24.6745 49.5354 24.1115 49.4449 23.542 49.3414C22.9725 49.2315 22.403 49.1151 21.84 48.9729C20.9404 48.7401 20.4033 47.8219 20.6298 46.9296C20.7916 46.3154 21.2705 45.8757 21.84 45.727Z" fill="#5A5A5A"/>
</svg>
