<svg width="71" height="70" viewBox="0 0 71 70" fill="none" xmlns="http://www.w3.org/2000/svg">
<path d="M0.375183 35C0.401069 29.1031 0.873503 23.4842 2.03838 18.8029C3.20325 14.0957 5.06058 10.3196 7.88863 7.50693C10.6973 4.68132 14.4767 2.8256 19.1944 1.66174C23.8798 0.497872 29.5036 0.0323296 35.4056 0C41.3076 0.0323296 46.9249 0.497872 51.6168 1.66174C56.328 2.8256 60.1074 4.68132 62.9225 7.50693C65.7506 10.3131 67.6079 14.0957 68.7728 18.8029C69.9376 23.4842 70.4036 29.1031 70.436 35C70.4036 40.8969 69.9376 46.5093 68.7728 51.1971C67.6079 55.9043 65.7506 59.6804 62.9225 62.4931C60.1074 65.3187 56.328 67.1744 51.6168 68.3383C46.9249 69.5021 41.3076 69.9677 35.4056 70C29.5036 69.9677 23.8798 69.5021 19.1944 68.3383C14.4767 67.1744 10.6973 65.3187 7.88863 62.4931C5.06058 59.6804 3.20325 55.9043 2.03838 51.1971C0.873503 46.5093 0.401069 40.8969 0.375183 35Z" fill="#CBCBCB"/>
<path d="M26.7144 25.9348C26.7144 30.2735 25.1548 33.7909 23.2327 33.7909C21.3172 33.7909 19.7575 30.2735 19.7575 25.9348C19.7575 21.6027 21.3172 18.0852 23.2327 18.0852C25.1548 18.0852 26.7144 21.6027 26.7144 25.9348Z" fill="#5A5A5A"/>
<path d="M51.0473 25.9348C51.0473 30.2735 49.4942 33.7909 47.5721 33.7909C45.6501 33.7909 44.0969 30.2735 44.0969 25.9348C44.0969 21.6027 45.6501 18.0852 47.5721 18.0852C49.4942 18.0852 51.0473 21.6027 51.0473 25.9348Z" fill="#5A5A5A"/>
<path d="M49.2094 44.0588C50.1672 44.1428 50.7302 45.1321 50.7302 47.6797C50.7302 56.4604 37.7677 56.6867 35.3862 56.6544C32.8947 56.6803 20.0811 56.4087 20.0811 47.6797C20.0811 45.0545 20.6764 44.0782 21.6925 44.0523" fill="#5A5A5A"/>
</svg>
