<svg width="71" height="70" viewBox="0 0 71 70" fill="none" xmlns="http://www.w3.org/2000/svg">
<path d="M0.435974 35C0.468332 29.1031 0.940766 23.4842 2.09917 18.8029C3.26405 14.0957 5.12784 10.3196 7.94943 7.50693C10.7645 4.68132 14.5439 2.8256 19.2617 1.66174C23.9471 0.497872 29.5708 0.0323296 35.4664 0C41.3684 0.0323296 46.9922 0.497872 51.6776 1.66174C56.3953 2.8256 60.1747 4.68132 62.9898 7.50693C65.8114 10.3131 67.6752 14.0957 68.84 18.8029C69.9985 23.4842 70.4709 29.1031 70.5032 35C70.4709 40.8969 69.9985 46.5093 68.84 51.1971C67.6752 55.9043 65.8114 59.6804 62.9898 62.4931C60.1747 65.3187 56.3953 67.1744 51.6776 68.3383C46.9922 69.5021 41.3684 69.9677 35.4664 70C29.5708 69.9677 23.9471 69.5021 19.2617 68.3383C14.5439 67.1744 10.7645 65.3187 7.94943 62.4931C5.12784 59.6804 3.26405 55.9043 2.09917 51.1971C0.940766 46.5093 0.468332 40.8969 0.435974 35Z" fill="#CBCBCB"/>
<path d="M26.7751 25.9348C26.7751 30.2735 25.222 33.7909 23.2999 33.7909C21.3779 33.7909 19.8247 30.2735 19.8247 25.9348C19.8247 21.6027 21.3779 18.0852 23.2999 18.0852C25.222 18.0852 26.7751 21.6027 26.7751 25.9348Z" fill="#5A5A5A"/>
<path d="M51.1147 25.9348C51.1147 30.2735 49.5616 33.7909 47.6395 33.7909C45.7175 33.7909 44.1643 30.2735 44.1643 25.9348C44.1643 21.6027 45.7175 18.0852 47.6395 18.0852C49.5616 18.0852 51.1147 21.6027 51.1147 25.9348Z" fill="#5A5A5A"/>
<path d="M49.4448 44.5243C49.4319 44.589 49.4254 44.6148 49.419 44.6472L49.3995 44.7377L49.3736 44.8993C49.3478 45.0028 49.3283 45.0998 49.3024 45.2032C49.2571 45.3972 49.1989 45.5847 49.1407 45.7723C49.0242 46.1387 48.8861 46.4964 48.7265 46.8456C48.4094 47.5439 48.0146 48.2034 47.5616 48.8242C46.6427 50.0656 45.4648 51.1196 44.1576 51.9343C43.4975 52.3416 42.8115 52.6843 42.1061 52.9753C41.4008 53.2533 40.6824 53.5055 39.9641 53.6736C38.5209 54.0293 37.0648 54.1844 35.6476 54.1909C34.2432 54.1974 32.8066 54.0745 31.3764 53.7512L30.8392 53.6284C30.6645 53.5896 30.4833 53.5314 30.3021 53.4797C30.1273 53.4215 29.9462 53.3827 29.7714 53.318L29.2408 53.1305C28.5418 52.8654 27.8494 52.5615 27.1828 52.1865C26.5227 51.8114 25.8821 51.3847 25.2802 50.8997C24.6848 50.4148 24.1347 49.8652 23.6429 49.2768C23.5199 49.1281 23.4035 48.9729 23.287 48.8242C23.1705 48.669 23.0605 48.5138 22.9505 48.3522C22.7434 48.0289 22.5363 47.7056 22.3616 47.3629C22.1803 47.0202 22.025 46.671 21.8891 46.3025C21.8179 46.1149 21.7532 45.9274 21.695 45.7334C21.6691 45.6365 21.6367 45.5395 21.6108 45.4296L21.572 45.2679L21.5526 45.1774C21.5397 45.1386 21.5397 45.1192 21.5203 45.0481C21.1579 44.0329 21.695 42.9208 22.711 42.5587C23.727 42.1966 24.8466 42.7333 25.2025 43.7484C25.1961 43.7161 25.209 43.729 25.2155 43.729C25.2155 43.729 25.2284 43.7355 25.2349 43.7419C25.2522 43.7549 25.2694 43.7721 25.2867 43.7937L25.3967 43.9036C25.4808 43.9812 25.5585 44.0652 25.6426 44.1428C25.8044 44.3045 25.9856 44.4661 26.1668 44.6213C26.5292 44.9252 26.9045 45.2162 27.2993 45.4619C27.6876 45.7205 28.0953 45.9404 28.5095 46.1408C28.9301 46.3413 29.3573 46.5094 29.7973 46.6645C30.2374 46.8197 30.6969 46.9361 31.1563 47.0525C31.3893 47.0978 31.6223 47.156 31.8617 47.1948C31.9847 47.2142 32.1012 47.24 32.2241 47.2594L32.5865 47.3111C33.5573 47.4469 34.5798 47.4987 35.6217 47.4987C36.6506 47.4987 37.6473 47.4211 38.5921 47.2723C39.071 47.2012 39.5305 47.0978 39.9835 46.9814C40.43 46.865 40.8701 46.7163 41.2972 46.5546C42.1385 46.2184 42.9539 45.7916 43.7046 45.2356C44.0799 44.964 44.4359 44.6536 44.7853 44.3239C44.9536 44.1558 45.1283 43.9876 45.2836 43.8131L45.4066 43.6773L45.5166 43.548L45.6266 43.4316C45.6461 43.4122 45.659 43.3928 45.6784 43.3799C45.6849 43.3669 45.6914 43.3604 45.6978 43.3604C45.7043 43.354 45.7108 43.341 45.7108 43.3734C46.0279 42.3453 47.1216 41.7634 48.157 42.0867C49.186 42.4035 49.7619 43.4962 49.4448 44.5243Z" fill="#5A5A5A"/>
</svg>
