<svg width="71" height="70" viewBox="0 0 71 70" fill="none" xmlns="http://www.w3.org/2000/svg">
<path d="M0.564026 35C0.596384 29.1031 1.06233 23.4842 2.22721 18.8029C3.39208 14.0957 5.2494 10.3196 8.07746 7.50693C10.8861 4.68132 14.6719 2.8256 19.3832 1.66174C24.0686 0.497872 29.6924 0.0323296 35.5944 0C41.4964 0.0323296 47.1137 0.497872 51.8056 1.66174C56.5169 2.8256 60.2962 4.68132 63.1114 7.50693C65.9394 10.3131 67.7967 14.0957 68.9616 18.8029C70.1265 23.4842 70.5924 29.1031 70.6248 35C70.5924 40.8969 70.1265 46.5093 68.9616 51.1971C67.7967 55.9043 65.9394 59.6804 63.1114 62.4931C60.2962 65.3187 56.5169 67.1744 51.8056 68.3383C47.1137 69.5021 41.4964 69.9677 35.5944 70C29.6924 69.9677 24.0686 69.5021 19.3832 68.3383C14.6719 67.1744 10.8926 65.3187 8.07746 62.4931C5.2494 59.6804 3.39208 55.9043 2.22721 51.1971C1.06233 46.5093 0.596384 40.8969 0.564026 35Z" fill="#CBCBCB"/>
<path d="M26.9032 25.9348C26.9032 30.2735 25.3435 33.7909 23.4279 33.7909C21.5059 33.7909 19.9463 30.2735 19.9463 25.9348C19.9463 21.6027 21.5059 18.0852 23.4279 18.0852C25.3435 18.0852 26.9032 21.6027 26.9032 25.9348Z" fill="#5A5A5A"/>
<path d="M51.2361 25.9348C51.2361 30.2735 49.6829 33.7909 47.7608 33.7909C45.8453 33.7909 44.2856 30.2735 44.2856 25.9348C44.2856 21.6027 45.8453 18.0852 47.7608 18.0852C49.6829 18.0852 51.2361 21.6027 51.2361 25.9348Z" fill="#5A5A5A"/>
<path d="M21.6158 50.5829C21.6287 50.5182 21.6352 50.4924 21.6417 50.46L21.6546 50.3695L21.687 50.2079C21.7064 50.1044 21.7323 50.0074 21.7517 49.9104C21.797 49.71 21.8552 49.5225 21.907 49.335C22.0235 48.9685 22.1616 48.6086 22.3212 48.2551C22.6318 47.5568 23.0201 46.8908 23.4731 46.2636C24.3791 45.0157 25.5505 43.9424 26.8642 43.1147C27.5178 42.7009 28.2103 42.3453 28.9157 42.0478C29.6211 41.7633 30.3394 41.5112 31.0707 41.3431C32.5203 40.9745 33.9829 40.8128 35.4131 40.8064C36.8239 40.7999 38.267 40.9292 39.7102 41.2525L40.2473 41.3819C40.4285 41.4271 40.6097 41.4853 40.7844 41.537C41.1469 41.634 41.4963 41.7633 41.8522 41.8927C42.5576 42.1642 43.2566 42.4681 43.9167 42.8561C44.5832 43.2376 45.2239 43.6708 45.8193 44.1622C46.4147 44.6536 46.9583 45.2097 47.4501 45.8046C47.942 46.3994 48.3691 47.046 48.7185 47.7379C48.8933 48.0806 49.055 48.4297 49.1909 48.7983C49.2557 48.9858 49.3204 49.1733 49.3722 49.3673C49.4045 49.4707 49.4304 49.5677 49.4563 49.6712L49.4951 49.8393L49.5145 49.9298C49.521 49.9621 49.5275 49.9815 49.5469 50.0527C49.9028 51.0678 49.3657 52.1864 48.3432 52.5421C47.3271 52.8977 46.214 52.3545 45.8581 51.3394C45.8646 51.3717 45.8516 51.3588 45.8452 51.3588C45.8387 51.3588 45.8322 51.3459 45.8258 51.3394C45.8085 51.3265 45.7912 51.3114 45.774 51.2941L45.6575 51.1777C45.5798 51.1002 45.5022 51.0161 45.418 50.932C45.2498 50.7639 45.0686 50.6023 44.8939 50.4471C44.5315 50.1303 44.1561 49.8393 43.7613 49.5871C43.3731 49.322 42.9653 49.0957 42.5512 48.8888C42.137 48.6884 41.7034 48.5138 41.2633 48.3521L40.9333 48.2422L40.5968 48.1388C40.4867 48.1064 40.3638 48.0806 40.2538 48.0482C40.1373 48.0224 40.0273 47.9836 39.9043 47.9577C39.6713 47.9124 39.4384 47.8543 39.1989 47.8155C39.0824 47.7961 38.966 47.7702 38.843 47.7508L38.4806 47.6926C37.5034 47.5568 36.4874 47.4986 35.439 47.4986C33.3745 47.5116 31.459 47.7896 29.7634 48.4685C28.9221 48.8177 28.1132 49.2509 27.3625 49.8199C26.9872 50.0979 26.6248 50.4148 26.2818 50.751C26.1135 50.9191 25.9388 51.0937 25.7835 51.2747L25.6605 51.404L25.5505 51.5334L25.4405 51.6627C25.421 51.6821 25.4081 51.695 25.3887 51.7144C25.3822 51.7209 25.3757 51.7273 25.3693 51.7338C25.3628 51.7338 25.3499 51.7467 25.3563 51.7209C25.0392 52.7554 23.952 53.3374 22.9166 53.0205C21.8811 52.7037 21.2987 51.6174 21.6158 50.5829Z" fill="#5A5A5A"/>
</svg>
