<svg width="71" height="70" viewBox="0 0 71 70" fill="none" xmlns="http://www.w3.org/2000/svg">
<path d="M0.188843 35C0.214729 29.1031 0.687163 23.4842 1.85204 18.8029C3.01691 14.0957 4.87424 10.3196 7.70229 7.50693C10.5109 4.68132 14.2903 2.8256 19.0081 1.66174C23.6935 0.497872 29.3172 0.0323296 35.2192 0C41.1213 0.0323296 46.7386 0.497872 51.4304 1.66174C56.1417 2.8256 59.9211 4.68132 62.7362 7.50693C65.5642 10.3131 67.4215 14.0957 68.5864 18.8029C69.7513 23.4842 70.2173 29.1031 70.2496 35C70.2173 40.8969 69.7513 46.5093 68.5864 51.1971C67.4215 55.9043 65.5642 59.6804 62.7362 62.4931C59.9211 65.3187 56.1417 67.1744 51.4304 68.3383C46.7386 69.5021 41.1213 69.9677 35.2192 70C29.3172 69.9677 23.6935 69.5021 19.0081 68.3383C14.2903 67.1744 10.5109 65.3187 7.70229 62.4931C4.87424 59.6804 3.01691 55.9043 1.85204 51.1971C0.687163 46.5093 0.214729 40.8969 0.188843 35Z" fill="#49B7EB"/>
<path d="M26.528 25.9348C26.528 30.2735 24.9684 33.7909 23.0464 33.7909C21.1308 33.7909 19.5712 30.2735 19.5712 25.9348C19.5712 21.6027 21.1308 18.0852 23.0464 18.0852C24.9684 18.0852 26.528 21.6027 26.528 25.9348Z" fill="#053D6F"/>
<path d="M50.8611 25.9348C50.8611 30.2735 49.3079 33.7909 47.3859 33.7909C45.4638 33.7909 43.9106 30.2735 43.9106 25.9348C43.9106 21.6027 45.4638 18.0852 47.3859 18.0852C49.3079 18.0852 50.8611 21.6027 50.8611 25.9348Z" fill="#053D6F"/>
<path d="M49.0231 44.0587C49.9809 44.1428 50.5439 45.1321 50.5439 47.6796C50.5439 56.4604 37.5815 56.6867 35.1999 56.6543C32.7084 56.6802 19.8948 56.4086 19.8948 47.6796C19.8948 45.0545 20.4901 44.0781 21.5062 44.0522" fill="#053D6F"/>
</svg>
