<svg width="71" height="70" viewBox="0 0 71 70" fill="none" xmlns="http://www.w3.org/2000/svg">
<path d="M0.121582 35C0.15394 29.1031 0.626374 23.4842 1.78478 18.8029C2.94965 14.0957 4.81345 10.3196 7.63504 7.50693C10.4502 4.68132 14.2295 2.8256 18.9473 1.66174C23.6327 0.497872 29.2564 0.0323296 35.152 0C41.054 0.0323296 46.6778 0.497872 51.3632 1.66174C56.0809 2.8256 59.8603 4.68132 62.6754 7.50693C65.497 10.3131 67.3608 14.0957 68.5257 18.8029C69.6841 23.4842 70.1565 29.1031 70.1889 35C70.1565 40.8969 69.6841 46.5093 68.5257 51.1971C67.3608 55.9043 65.497 59.6804 62.6754 62.4931C59.8603 65.3187 56.0809 67.1744 51.3632 68.3383C46.6778 69.5021 41.054 69.9677 35.152 70C29.2564 69.9677 23.6327 69.5021 18.9473 68.3383C14.2295 67.1744 10.4502 65.3187 7.63504 62.4931C4.81345 59.6804 2.94965 55.9043 1.78478 51.1971C0.626374 46.5093 0.15394 40.8969 0.121582 35Z" fill="#90E74D"/>
<path d="M26.4607 25.9348C26.4607 30.2735 24.9075 33.7909 22.9855 33.7909C21.0634 33.7909 19.5103 30.2735 19.5103 25.9348C19.5103 21.6027 21.0634 18.0852 22.9855 18.0852C24.9075 18.0852 26.4607 21.6027 26.4607 25.9348Z" fill="#246500"/>
<path d="M50.8003 25.9348C50.8003 30.2735 49.2471 33.7909 47.3251 33.7909C45.403 33.7909 43.8499 30.2735 43.8499 25.9348C43.8499 21.6027 45.403 18.0852 47.3251 18.0852C49.2471 18.0852 50.8003 21.6027 50.8003 25.9348Z" fill="#246500"/>
<path d="M49.1304 44.5244C49.1175 44.589 49.111 44.6149 49.1046 44.6472L49.0851 44.7378L49.0592 44.8994C49.0334 45.0029 49.0139 45.0998 48.9881 45.2033C48.9428 45.3973 48.8845 45.5848 48.8263 45.7723C48.7098 46.1387 48.5717 46.4965 48.4121 46.8457C48.095 47.544 47.7002 48.2035 47.2472 48.8242C46.3283 50.0657 45.1504 51.1196 43.8432 51.9344C43.1831 52.3417 42.4971 52.6844 41.7918 52.9754C41.0864 53.2534 40.368 53.5056 39.6497 53.6737C38.2065 54.0293 36.7504 54.1845 35.3332 54.191C33.9288 54.1974 32.4922 54.0746 31.062 53.7513L30.5248 53.6284C30.3501 53.5896 30.1689 53.5314 29.9877 53.4797C29.813 53.4215 29.6318 53.3827 29.457 53.3181L28.9264 53.1306C28.2274 52.8654 27.535 52.5616 26.8684 52.1865C26.2083 51.8115 25.5677 51.3847 24.9658 50.8998C24.3704 50.4149 23.8203 49.8653 23.3285 49.2769C23.2055 49.1281 23.0891 48.973 22.9726 48.8242C22.8561 48.6691 22.7461 48.5139 22.6361 48.3522C22.429 48.0289 22.2219 47.7056 22.0472 47.3629C21.866 47.0202 21.7106 46.6711 21.5747 46.3025C21.5035 46.115 21.4388 45.9275 21.3806 45.7335C21.3547 45.6365 21.3223 45.5395 21.2965 45.4296L21.2576 45.268L21.2382 45.1774C21.2253 45.1386 21.2253 45.1192 21.2059 45.0481C20.8435 44.033 21.3806 42.9208 22.3966 42.5587C23.4126 42.1966 24.5322 42.7333 24.8881 43.7485C24.8817 43.7161 24.8946 43.7291 24.9011 43.7291C24.9011 43.7291 24.914 43.7355 24.9205 43.742C24.9378 43.7549 24.955 43.7722 24.9723 43.7937L25.0823 43.9037C25.1664 43.9812 25.2441 44.0653 25.3282 44.1429C25.49 44.3045 25.6712 44.4662 25.8524 44.6214C26.2148 44.9253 26.5901 45.2162 26.9849 45.4619C27.3732 45.7206 27.7809 45.9404 28.1951 46.1409C28.6157 46.3413 29.0429 46.5094 29.4829 46.6646C29.923 46.8198 30.3825 46.9362 30.8419 47.0526C31.0749 47.0978 31.3079 47.156 31.5473 47.1948C31.6703 47.2142 31.7868 47.2401 31.9097 47.2595L32.2722 47.3112C33.2429 47.447 34.2654 47.4987 35.3073 47.4987C36.3363 47.4987 37.3329 47.4211 38.2777 47.2724C38.7566 47.2013 39.2161 47.0978 39.6691 46.9814C40.1156 46.8651 40.5557 46.7163 40.9828 46.5547C41.8241 46.2185 42.6395 45.7917 43.3902 45.2356C43.7655 44.9641 44.1215 44.6537 44.471 44.3239C44.6392 44.1558 44.8139 43.9877 44.9692 43.8131L45.0922 43.6773L45.2022 43.548L45.3123 43.4316C45.3317 43.4122 45.3446 43.3928 45.364 43.3799C45.3705 43.367 45.377 43.3605 45.3834 43.3605C45.3899 43.354 45.3964 43.3411 45.3964 43.3734C45.7135 42.3454 46.8072 41.7634 47.8426 42.0867C48.8716 42.4036 49.4475 43.4963 49.1304 44.5244Z" fill="#246500"/>
</svg>
