<svg width="71" height="70" viewBox="0 0 71 70" fill="none" xmlns="http://www.w3.org/2000/svg">
<path d="M0 35C0.0323576 29.1031 0.498305 23.4842 1.66318 18.8029C2.82805 14.0957 4.68538 10.3196 7.51344 7.50693C10.3221 4.68132 14.1079 2.8256 18.8192 1.66174C23.5046 0.497872 29.1283 0.0323296 35.0304 0C40.9324 0.0323296 46.5497 0.497872 51.2416 1.66174C55.9528 2.8256 59.7322 4.68132 62.5473 7.50693C65.3754 10.3131 67.2327 14.0957 68.3976 18.8029C69.5625 23.4842 70.0284 29.1031 70.0608 35C70.0284 40.8969 69.5625 46.5093 68.3976 51.1971C67.2327 55.9043 65.3754 59.6804 62.5473 62.4931C59.7322 65.3187 55.9528 67.1744 51.2416 68.3383C46.5497 69.5021 40.9324 69.9677 35.0304 70C29.1283 69.9677 23.5046 69.5021 18.8192 68.3383C14.1079 67.1744 10.3286 65.3187 7.51344 62.4931C4.68538 59.6804 2.82805 55.9043 1.66318 51.1971C0.498305 46.5093 0.0323576 40.8969 0 35Z" fill="#F68C24"/>
<path d="M26.3391 25.9348C26.3391 30.2735 24.7794 33.7909 22.8639 33.7909C20.9418 33.7909 19.3822 30.2735 19.3822 25.9348C19.3822 21.6027 20.9418 18.0852 22.8639 18.0852C24.7794 18.0852 26.3391 21.6027 26.3391 25.9348Z" fill="#6F1A03"/>
<path d="M50.672 25.9348C50.672 30.2735 49.1188 33.7909 47.1968 33.7909C45.2812 33.7909 43.7216 30.2735 43.7216 25.9348C43.7216 21.6027 45.2812 18.0852 47.1968 18.0852C49.1188 18.0852 50.672 21.6027 50.672 25.9348Z" fill="#6F1A03"/>
<path d="M21.0518 50.5829C21.0647 50.5182 21.0712 50.4924 21.0777 50.46L21.0906 50.3695L21.123 50.2079C21.1424 50.1044 21.1683 50.0074 21.1877 49.9104C21.233 49.71 21.2912 49.5225 21.343 49.335C21.4595 48.9685 21.5976 48.6086 21.7572 48.2551C22.0678 47.5568 22.4561 46.8908 22.9091 46.2636C23.8151 45.0157 24.9865 43.9424 26.3002 43.1147C26.9538 42.7009 27.6463 42.3453 28.3517 42.0478C29.0571 41.7633 29.7754 41.5112 30.5067 41.3431C31.9563 40.9745 33.4189 40.8128 34.8491 40.8064C36.2599 40.7999 37.703 40.9292 39.1462 41.2525L39.6833 41.3819C39.8645 41.4271 40.0457 41.4853 40.2205 41.537C40.5829 41.634 40.9323 41.7633 41.2883 41.8927C41.9937 42.1642 42.6926 42.4681 43.3527 42.8561C44.0192 43.2376 44.6599 43.6708 45.2553 44.1622C45.8507 44.6536 46.3943 45.2097 46.8861 45.8046C47.378 46.3994 47.8051 47.046 48.1545 47.7379C48.3293 48.0806 48.4911 48.4297 48.627 48.7983C48.6917 48.9858 48.7564 49.1733 48.8082 49.3673C48.8405 49.4707 48.8664 49.5677 48.8923 49.6712L48.9311 49.8393L48.9505 49.9298C48.957 49.9621 48.9635 49.9815 48.9829 50.0527C49.3388 51.0678 48.8017 52.1864 47.7792 52.5421C46.7631 52.8977 45.6501 52.3545 45.2941 51.3394C45.3006 51.3717 45.2877 51.3588 45.2812 51.3588C45.2747 51.3588 45.2682 51.3459 45.2618 51.3394C45.2445 51.3265 45.2272 51.3114 45.21 51.2941L45.0935 51.1777C45.0158 51.1002 44.9382 51.0161 44.8541 50.932C44.6858 50.7639 44.5046 50.6023 44.3299 50.4471C43.9675 50.1303 43.5921 49.8393 43.1974 49.5871C42.8091 49.322 42.4013 49.0957 41.9872 48.8888C41.573 48.6884 41.1394 48.5138 40.6993 48.3521L40.3693 48.2422L40.0328 48.1388C39.9228 48.1064 39.7998 48.0806 39.6898 48.0482C39.5733 48.0224 39.4633 47.9836 39.3403 47.9577C39.1073 47.9124 38.8744 47.8543 38.6349 47.8155C38.5184 47.7961 38.402 47.7702 38.279 47.7508L37.9166 47.6926C36.9394 47.5568 35.9234 47.4986 34.875 47.4986C32.8106 47.5116 30.895 47.7896 29.1994 48.4685C28.3581 48.8177 27.5492 49.2509 26.7985 49.8199C26.4232 50.0979 26.0608 50.4148 25.7178 50.751C25.5495 50.9191 25.3748 51.0937 25.2195 51.2747L25.0965 51.404L24.9865 51.5334L24.8765 51.6627C24.8571 51.6821 24.8441 51.695 24.8247 51.7144C24.8182 51.7209 24.8117 51.7273 24.8053 51.7338C24.7988 51.7338 24.7859 51.7467 24.7923 51.7209C24.4752 52.7554 23.388 53.3374 22.3526 53.0205C21.3171 52.7037 20.7347 51.6174 21.0518 50.5829Z" fill="#6F1A03"/>
</svg>
