<svg width="71" height="70" viewBox="0 0 71 70" fill="none" xmlns="http://www.w3.org/2000/svg">
<path d="M0.060791 35C0.0931487 29.1031 0.559096 23.4842 1.72397 18.8029C2.88885 14.0957 4.74619 10.3196 7.57424 7.50693C10.3894 4.68132 14.1687 2.8256 18.88 1.66174C23.5654 0.497872 29.1892 0.0323296 35.0912 0C40.9932 0.0323296 46.617 0.497872 51.3024 1.66174C56.0136 2.8256 59.793 4.68132 62.6081 7.50693C65.4362 10.3131 67.2935 14.0957 68.4584 18.8029C69.6233 23.4842 70.0892 29.1031 70.1216 35C70.0892 40.8969 69.6233 46.5093 68.4584 51.1971C67.2935 55.9043 65.4362 59.6804 62.6081 62.4931C59.793 65.3187 56.0136 67.1744 51.3024 68.3383C46.6105 69.5021 40.9932 69.9677 35.0912 70C29.1892 69.9677 23.5654 69.5021 18.88 68.3383C14.1687 67.1744 10.3894 65.3187 7.57424 62.4931C4.74619 59.6804 2.88885 55.9043 1.72397 51.1971C0.559096 46.5093 0.0931487 40.8969 0.060791 35Z" fill="#ECD643"/>
<path d="M26.4 25.9348C26.4 30.2735 24.8404 33.7909 22.9248 33.7909C21.0028 33.7909 19.4431 30.2735 19.4431 25.9348C19.4431 21.6027 21.0028 18.0852 22.9248 18.0852C24.8404 18.0852 26.4 21.6027 26.4 25.9348Z" fill="#652F00"/>
<path d="M50.7394 25.9348C50.7394 30.2735 49.1797 33.7909 47.2577 33.7909C45.3421 33.7909 43.7825 30.2735 43.7825 25.9348C43.7825 21.6027 45.3421 18.0852 47.2577 18.0852C49.1797 18.0852 50.7394 21.6027 50.7394 25.9348Z" fill="#652F00"/>
<path d="M21.3974 45.727C21.9605 45.5783 22.53 45.4619 23.0995 45.3584C23.669 45.2485 24.232 45.158 24.8015 45.0739C25.9405 44.9058 27.073 44.783 28.212 44.6731C30.4835 44.4661 32.755 44.3692 35.0265 44.3562C37.298 44.3433 39.5695 44.4144 41.841 44.589C42.4105 44.6343 42.98 44.686 43.543 44.7506C44.1125 44.8088 44.682 44.88 45.2515 44.9575C45.8145 45.0351 46.384 45.1192 46.9535 45.2227C47.523 45.3196 48.086 45.4296 48.6555 45.5718C49.6392 45.8175 50.2346 46.8133 49.9887 47.7896C49.8204 48.4685 49.2897 48.9664 48.6555 49.1216C48.086 49.2638 47.523 49.3738 46.9535 49.4772C46.384 49.5742 45.8145 49.6583 45.2515 49.7423C44.682 49.8134 44.1125 49.8846 43.543 49.9428C42.98 50.0074 42.4105 50.0592 41.841 50.1044C39.5695 50.2855 37.298 50.3566 35.0265 50.3372C32.755 50.3243 30.4835 50.2273 28.212 50.0204C27.073 49.9169 25.9405 49.7876 24.8015 49.6195C24.232 49.5354 23.669 49.4449 23.0995 49.3414C22.53 49.2315 21.9605 49.1151 21.3974 48.9729C20.4979 48.7401 19.9608 47.8219 20.1873 46.9296C20.3491 46.3154 20.828 45.8757 21.3974 45.727Z" fill="#652F00"/>
</svg>
