<svg width="155" height="33" viewBox="0 0 155 33" fill="none" xmlns="http://www.w3.org/2000/svg">
<path d="M5.28 23.44C5.28 23.96 5 24.24 4.48 24.24C4.36 24.24 4.32 24.24 4.28 24.2C3.2 23.88 2.24 23.12 2.24 22.2C2.24 21.52 3.08 18.64 4.76 13.56C3.2 13.56 3.12 14.04 2.8 14.04C2.6 14.04 2.52 13.92 2.52 13.68C2.52 13.16 2.88 12.6 3.6 11.96C3.96 11.68 4.6 11.44 5.52 11.32C6.6 8.2 7.52 5.68 8.28 3.76C8.36 3.48 8.4 3.24 8.4 3.12C8.4 2.8 8.16 2.64 7.64 2.64C6.64 2.64 5.56 3.44 4.36 5.04C3.2 6.6 2.6 8 2.6 9.24C2.6 9.36 2.64 9.44 2.64 9.56V9.84C2.64 10.28 2.52 10.48 2.24 10.48C1.88 10.48 1.44 10.24 0.92 9.72C0.4 9.2 0.08 8.72 0.04 8.36C0 8.24 0 8.08 0 7.8C0 6.16 0.8 4.64 2.4 3.24C4.04 1.84 5.88 1.16 8 1.16C9.76 1.16 11.68 2.16 11.68 3.64C11.68 3.84 11.64 4.12 11.52 4.48C10.44 7.28 9.64 9.52 9.08 11.24C10.12 11.28 11.44 11.32 13.08 11.44C14.64 7.16 15.92 3.92 16.92 1.76C17 1.56 17.24 1.44 17.68 1.44C18.2 1.44 18.8 1.72 19.52 2.24C19.76 2.44 19.88 2.72 19.88 3C19.88 3.04 19.84 3.2 19.84 3.24C18.96 5.12 17.88 7.88 16.56 11.56C17.08 11.56 17.4 11.52 17.52 11.4C17.56 11.36 17.64 11.32 17.76 11.32C17.96 11.32 18.08 11.48 18.08 11.76C18.08 12.36 17.76 12.88 17.08 13.32C16.84 13.52 16.4 13.64 15.8 13.72C13.84 19.4 12.88 22.64 12.88 23.44C12.88 23.96 12.6 24.24 12.08 24.24C11.96 24.24 11.92 24.24 11.88 24.2C10.8 23.88 9.84 23.12 9.84 22.2C9.84 21.44 10.64 18.64 12.24 13.84C11.16 13.8 9.84 13.76 8.24 13.64C6.28 19.4 5.28 22.68 5.28 23.44ZM23.5194 21.92C25.5994 21.56 28.1194 19.12 30.8794 13.48C30.9594 13.24 31.1994 13.24 31.5594 13.44C31.8394 13.64 31.9594 13.88 31.8394 14.12L30.4394 16.92C30.1194 17.52 29.6394 18.36 29.0394 19.36C27.7594 21.48 26.0394 23.16 23.5594 23.52C19.4394 24.04 16.9194 21.24 17.1594 17.72C17.3194 15.4 18.1594 13.2 19.6794 11.12C21.2394 9 22.9194 7.96 24.7994 7.96C27.3994 7.96 28.5994 9.8 28.4794 11.72C28.2794 14.16 24.7194 19.04 20.3194 19.04C20.3994 21 21.8394 22.24 23.5194 21.92ZM20.5194 17.76C23.5994 16.92 26.4394 11.76 26.5194 10.44C26.5594 10 26.3194 9.76 25.8794 9.76C24.4794 9.76 22.6394 11.92 21.4394 14.68C21.0794 15.36 20.6794 16.72 20.4794 17.8C20.4794 17.8 20.4794 17.76 20.5194 17.76ZM42.545 9.4C42.985 9.76 43.225 10.08 43.225 10.4C43.225 10.44 43.225 10.48 43.185 10.52V10.6C42.625 11.68 41.865 13.6 40.905 16.4C39.985 19.16 39.505 21 39.465 21.92C40.105 21.92 41.065 21.04 42.345 19.32C43.665 17.6 44.825 15.64 45.865 13.44C45.985 13.24 46.225 13.2 46.545 13.4C46.905 13.64 46.985 13.88 46.865 14.08C43.825 20.36 41.305 23.52 39.345 23.52C38.825 23.52 38.265 23.36 37.625 23.04C36.985 22.72 36.585 22.4 36.465 22.04C36.425 21.92 36.385 21.72 36.385 21.4C36.385 20.92 36.465 20.32 36.625 19.6C35.225 22.2 34.225 23.52 33.585 23.52C32.705 23.52 31.825 23.28 30.985 22.84C30.145 22.4 29.625 21.92 29.465 21.48C29.305 21.08 29.225 20.56 29.225 19.88C29.225 18.48 29.505 16.84 30.105 15C30.705 13.12 31.505 11.48 32.545 10.04C33.625 8.6 34.705 7.88 35.785 7.88C37.705 7.88 38.985 8.72 39.665 10.36C39.825 10 40.145 9.28 40.265 9.12C40.345 8.84 40.585 8.72 40.945 8.72C41.385 8.72 41.905 8.96 42.545 9.4ZM37.825 14.12L38.905 11.92C38.745 11.16 38.305 10.36 37.985 10.36C36.625 10.36 35.385 11.48 34.265 13.76C33.185 16 32.625 18.04 32.625 19.84C32.625 20.32 32.705 20.72 32.825 21.08C32.945 21.36 33.145 21.52 33.465 21.52C33.825 21.52 34.425 20.68 35.345 19.04L36.505 16.8C36.865 16.16 37.305 15.28 37.825 14.12ZM52.385 2.08C52.825 2.44 53.065 2.76 53.065 3.08C53.065 3.2 53.065 3.24 53.025 3.28C52.425 4.4 51.185 7.56 49.305 12.8C47.425 18 46.465 21.04 46.425 21.92C47.065 21.92 48.025 21.08 49.305 19.36C50.625 17.64 51.785 15.68 52.865 13.48C52.945 13.24 53.185 13.24 53.545 13.44C53.825 13.64 53.945 13.88 53.825 14.12C50.745 20.4 48.225 23.52 46.305 23.52C45.785 23.52 45.225 23.36 44.585 23.04C43.945 22.72 43.545 22.4 43.425 22.04C43.385 22 43.385 21.88 43.385 21.68C43.385 20.36 44.305 17.04 46.185 11.8C48.065 6.56 49.345 3.2 50.105 1.8C50.305 1.52 50.545 1.4 50.825 1.4C51.225 1.4 51.745 1.64 52.385 2.08ZM59.4572 2.08C59.8972 2.44 60.1372 2.76 60.1372 3.08C60.1372 3.2 60.1372 3.24 60.0972 3.28C59.7772 3.92 59.2972 5.08 58.6572 6.76H60.0972C60.4172 6.76 60.5772 7.04 60.4172 7.36C60.2572 7.76 59.9772 7.96 59.5772 7.96H58.1772C55.1372 15.92 53.5772 20.56 53.4972 21.92C54.1372 21.92 55.0972 21.08 56.3772 19.36C57.6972 17.64 58.8572 15.68 59.9372 13.48C60.0172 13.24 60.2572 13.24 60.6172 13.44C60.8972 13.64 61.0172 13.88 60.9372 14.08C57.8572 20.36 55.3372 23.52 53.3772 23.52C52.8572 23.52 52.2972 23.36 51.6572 23.04C51.0172 22.72 50.6172 22.4 50.4972 22.04C50.4572 22 50.4572 21.88 50.4572 21.68C50.4572 20.04 51.8572 15.48 54.6572 7.96H53.3372C53.0172 7.96 52.8572 7.68 52.9772 7.36C53.1372 6.96 53.4172 6.76 53.8172 6.76H55.1372C56.2172 3.96 56.8972 2.32 57.1772 1.8C57.3772 1.52 57.6172 1.4 57.8972 1.4C58.2972 1.4 58.8172 1.64 59.4572 2.08ZM65.0075 1.44C65.2875 1.44 65.7275 1.6 66.2875 1.92C66.8875 2.2 67.1675 2.56 67.1675 3C67.1675 3.12 67.1675 3.2 67.1275 3.24C65.8875 5.92 64.4475 9.68 62.8075 14.52C65.2475 10.16 67.4475 8 69.4075 8C69.8475 8 70.3675 8.24 70.9675 8.68C71.4075 9.04 71.6475 9.36 71.6475 9.68C71.6475 9.72 71.6475 9.76 71.6075 9.8V9.88C71.0075 11.04 70.1275 13.12 69.0075 16.12C67.9275 19.12 67.3675 21.04 67.3275 21.92C67.9675 21.92 68.9275 21.04 70.2475 19.32C71.5675 17.6 72.7275 15.64 73.7675 13.48C73.8075 13.28 74.2475 13.24 74.4475 13.4C74.7675 13.6 74.8875 13.84 74.7675 14.08C71.6875 20.36 69.1675 23.52 67.2075 23.52C66.6875 23.52 66.1275 23.36 65.4875 23.04C64.8475 22.72 64.4475 22.4 64.3275 22.04C64.2875 21.88 64.2475 21.68 64.2475 21.48C64.2475 20.48 64.6475 18.8 65.4875 16.4C66.3275 13.96 67.1675 11.76 68.0075 9.8C66.5275 10.96 65.0075 13.04 63.4075 16.08C61.8075 19.08 60.8875 21.24 60.6075 22.56C60.4875 23.08 60.2475 23.36 59.8075 23.36H59.6075C58.4875 23 57.5675 22.24 57.5675 21.32C57.5675 20.08 58.4075 17.08 60.0875 12.32C61.7675 7.56 63.1275 4.04 64.2075 1.76C64.2875 1.56 64.5675 1.44 65.0075 1.44ZM77.8756 8.64C78.3156 9 78.5556 9.32 78.5556 9.64V9.76L78.5156 9.84C77.9156 10.92 77.1156 13 76.0356 16.04C74.9956 19.04 74.4756 21 74.4356 21.92C75.0356 21.92 75.9956 21.08 77.3156 19.44C78.6356 17.76 79.7956 15.88 80.8756 13.84C81.9556 10.84 82.6356 9 82.9556 8.36C83.1556 8.08 83.3956 7.96 83.6756 7.96C84.0756 7.96 84.5956 8.2 85.2356 8.64C85.6756 9 85.9156 9.32 85.9156 9.64C85.9156 9.76 85.9156 9.8 85.8756 9.84C85.7156 10.12 85.3556 11.08 84.7556 12.76C84.1956 14.4 83.5556 16.32 82.7956 18.44C82.0756 20.56 81.5556 22.08 81.1956 23C82.9156 22.16 84.3156 20.88 85.4756 19.08C86.0756 18.16 86.5556 17.4 86.9156 16.76C87.2756 16.12 87.7156 15.24 88.2756 14.16C88.3956 13.88 88.5556 13.72 88.6356 13.44C88.7556 13.24 88.9956 13.2 89.3156 13.4C89.6756 13.64 89.7556 13.88 89.6356 14.08C88.1556 17.04 87.0356 19.04 86.2756 20.04C84.7156 22.2 82.7556 23.88 80.3956 25.12C79.2356 28.16 78.3556 30.12 77.7556 30.96C76.7956 32.28 75.5956 32.96 74.1156 33C72.6356 33 71.4356 31.88 71.4356 30.6C71.4356 28.88 73.0756 27.24 76.9156 25.2C77.4356 23.84 78.0756 22 78.8756 19.64C77.0756 22.24 75.5556 23.52 74.3156 23.52C73.7956 23.52 73.2356 23.36 72.5956 23.04C71.9556 22.72 71.5556 22.4 71.4356 22.04C71.3956 21.84 71.3556 21.64 71.3556 21.48C71.3556 20.28 71.8756 18.12 72.9556 15C74.0356 11.88 74.9156 9.68 75.5956 8.36C75.7556 7.84 76.5956 7.72 77.8756 8.64ZM76.1556 27.28C73.4756 28.72 72.8756 29.44 72.8756 30.4C72.8756 30.8 73.0756 31 73.5156 31C74.3956 31 75.2756 29.76 76.1556 27.28ZM102.638 23.56C102.638 24.12 102.358 24.4 101.838 24.4C101.798 24.4 101.758 24.4 101.718 24.36H101.638C100.518 24 99.5984 23.24 99.5984 22.32C99.5984 21.84 99.7984 21 100.238 19.6C100.478 18.88 100.678 18.24 100.878 17.72L101.678 15.4L102.438 13.24C102.078 13.24 101.798 13.28 101.598 13.32C101.558 13.36 101.478 13.36 101.398 13.36C101.118 13.36 100.998 13.12 100.998 12.68C100.998 12.04 101.398 11.16 101.918 10.96C102.198 10.84 102.678 10.8 103.278 10.76C104.358 7.76 105.278 5.4 106.038 3.68H105.478C101.958 3.68 100.078 4.84 100.078 6.28C100.078 6.64 100.198 6.96 100.478 7.32C100.518 7.44 100.558 7.48 100.558 7.52C100.558 7.8 100.278 8.08 99.9584 8.08C99.8384 8.08 99.7184 8.04 99.5984 7.96C99.1184 7.68 98.7984 7.16 98.6384 6.48C98.4784 5.8 98.3984 5.2 98.3984 4.64C98.3984 2.24 100.118 1.2 104.598 1.2C105.478 1.2 106.438 1.24 107.518 1.32C108.998 1.44 110.358 1.48 111.558 1.48C113.838 1.48 114.958 1.24 114.958 0.719998C114.958 0.679999 114.878 0.519999 114.878 0.479999C114.878 0.24 115.038 0.119999 115.358 0.119999C115.558 0.119999 115.758 0.199998 115.918 0.4C116.318 0.919998 116.518 1.6 116.518 2.4C116.518 3.8 115.598 4.48 113.798 4.48C113.478 4.48 112.038 4.32 109.438 4.04C108.838 5.28 107.998 7.52 106.838 10.68C109.478 10.64 110.958 10.52 111.238 10.32C111.318 10.28 111.398 10.24 111.518 10.24C111.918 10.24 112.118 10.64 112.118 11.48C112.118 12.48 111.878 13.08 111.358 13.32C111.118 13.44 110.558 13.48 109.678 13.48C108.278 13.48 106.998 13.44 105.878 13.36C103.718 19.48 102.638 22.88 102.638 23.56ZM119.052 7.96C122.052 7.96 123.452 9.92 123.452 12.84C123.452 13.76 123.332 14.64 123.092 15.56C123.332 15.72 123.612 15.8 123.972 15.8C124.612 15.8 124.972 15.4 125.932 13.52C126.132 13.2 126.372 13.16 126.652 13.4C127.012 13.64 127.092 13.88 126.932 14.16C125.692 16.56 124.812 17.48 123.492 17.48C123.292 17.48 123.012 17.44 122.572 17.32C121.892 19.08 121.012 20.56 119.932 21.8C118.852 23 117.772 23.6 116.652 23.6C113.412 23.6 111.772 21.24 111.772 18C111.772 15.6 112.492 13.32 113.892 11.2C115.332 9.04 117.052 7.96 119.052 7.96ZM120.572 9.8C118.012 9.6 114.892 16.36 115.052 19.84C115.052 21.56 115.572 22.4 116.652 22.4C118.412 22.4 120.292 19.8 121.412 16.6C120.732 15.92 120.412 15 120.412 13.88C120.412 12.4 120.892 11.32 121.892 10.6C121.612 10.08 121.172 9.8 120.572 9.8ZM131.942 7.96C134.942 7.96 136.342 9.92 136.342 12.84C136.342 13.76 136.222 14.64 135.982 15.56C136.222 15.72 136.502 15.8 136.862 15.8C137.502 15.8 137.862 15.4 138.822 13.52C139.022 13.2 139.262 13.16 139.542 13.4C139.902 13.64 139.982 13.88 139.822 14.16C138.582 16.56 137.702 17.48 136.382 17.48C136.182 17.48 135.902 17.44 135.462 17.32C134.782 19.08 133.902 20.56 132.822 21.8C131.742 23 130.662 23.6 129.542 23.6C126.302 23.6 124.662 21.24 124.662 18C124.662 15.6 125.382 13.32 126.782 11.2C128.222 9.04 129.942 7.96 131.942 7.96ZM133.462 9.8C130.902 9.6 127.782 16.36 127.942 19.84C127.942 21.56 128.462 22.4 129.542 22.4C131.302 22.4 133.182 19.8 134.302 16.6C133.622 15.92 133.302 15 133.302 13.88C133.302 12.4 133.782 11.32 134.782 10.6C134.502 10.08 134.062 9.8 133.462 9.8ZM153.233 2.08C153.673 2.44 153.913 2.76 153.913 3.08V3.2L153.873 3.28C153.273 4.4 152.033 7.56 150.153 12.8C148.273 18 147.313 21.04 147.273 21.92C147.913 21.92 148.873 21.04 150.193 19.32C151.513 17.6 152.673 15.64 153.713 13.44C153.833 13.24 154.073 13.2 154.393 13.4C154.753 13.64 154.833 13.88 154.713 14.08C151.673 20.36 149.153 23.52 147.153 23.52C146.633 23.52 146.073 23.36 145.433 23.04C144.793 22.72 144.393 22.4 144.273 22.04C144.233 22 144.233 21.88 144.233 21.68C144.233 21.16 144.313 20.56 144.513 19.8C143.193 22.28 142.193 23.52 141.593 23.52C140.713 23.52 139.833 23.28 138.993 22.84C138.153 22.4 137.633 21.92 137.473 21.48C137.313 21.08 137.233 20.56 137.233 19.88C137.233 18.48 137.513 16.84 138.113 15C138.713 13.12 139.513 11.48 140.553 10.04C141.633 8.6 142.713 7.88 143.793 7.88C145.593 7.88 146.873 8.64 147.593 10.2C149.113 6 150.233 3.2 150.953 1.8C151.033 1.52 151.273 1.4 151.633 1.4C152.073 1.4 152.593 1.64 153.233 2.08ZM145.953 13.92L147.073 11.68C146.793 10.64 146.473 10.12 146.113 10.12C145.193 10.12 144.273 10.72 143.393 11.92C141.633 14.32 140.633 17.68 140.633 19.92C140.633 20.36 140.713 20.72 140.833 21.08C140.953 21.36 141.153 21.52 141.473 21.52C141.833 21.52 142.473 20.68 143.393 18.96L144.633 16.64C144.993 15.96 145.433 15.04 145.953 13.92Z" fill="#204836"/>
</svg>
