<svg width="259" height="233" viewBox="0 0 259 233" fill="none" xmlns="http://www.w3.org/2000/svg">
<path d="M71.4188 31.7485L74.4188 39.6185C74.4981 39.8271 74.6213 40.0164 74.78 40.1734C74.9387 40.3304 75.1293 40.4514 75.3388 40.5285L83.1988 43.5285C83.498 43.6407 83.7559 43.8416 83.9379 44.1042C84.1199 44.3669 84.2175 44.6789 84.2175 44.9985C84.2175 45.318 84.1199 45.63 83.9379 45.8927C83.7559 46.1554 83.498 46.3562 83.1988 46.4685L75.3388 49.4685C75.1279 49.546 74.9365 49.6684 74.7776 49.8273C74.6187 49.9861 74.4963 50.1776 74.4188 50.3885L71.4188 58.2485C71.3066 58.5477 71.1057 58.8055 70.843 58.9876C70.5804 59.1696 70.2684 59.2671 69.9488 59.2671C69.6292 59.2671 69.3173 59.1696 69.0546 58.9876C68.7919 58.8055 68.591 58.5477 68.4788 58.2485L65.4788 50.3885C65.4018 50.1789 65.2807 49.9884 65.1237 49.8297C64.9667 49.6709 64.7775 49.5478 64.5688 49.4685L56.6988 46.4685C56.3996 46.3562 56.1417 46.1554 55.9597 45.8927C55.7777 45.63 55.6802 45.318 55.6802 44.9985C55.6802 44.6789 55.7777 44.3669 55.9597 44.1042C56.1417 43.8416 56.3996 43.6407 56.6988 43.5285L64.5688 40.5285C64.7762 40.4497 64.9645 40.3279 65.1213 40.171C65.2782 40.0141 65.4 39.8258 65.4788 39.6185L68.4788 31.7485C68.591 31.4492 68.7919 31.1914 69.0546 31.0094C69.3173 30.8274 69.6292 30.7298 69.9488 30.7298C70.2684 30.7298 70.5804 30.8274 70.843 31.0094C71.1057 31.1914 71.3066 31.4492 71.4188 31.7485Z" fill="#FFC700"/>
<path d="M226.649 192.838L229.649 200.708C229.726 200.917 229.847 201.106 230.004 201.263C230.161 201.42 230.35 201.541 230.559 201.618L238.429 204.618C238.729 204.728 238.988 204.928 239.171 205.19C239.355 205.452 239.453 205.764 239.453 206.083C239.453 206.403 239.355 206.715 239.171 206.977C238.988 207.239 238.729 207.439 238.429 207.548L230.559 210.548C230.351 210.629 230.163 210.753 230.006 210.912C229.849 211.07 229.728 211.26 229.649 211.468L226.649 219.338C226.537 219.638 226.336 219.896 226.073 220.078C225.81 220.26 225.498 220.357 225.179 220.357C224.859 220.357 224.547 220.26 224.285 220.078C224.022 219.896 223.821 219.638 223.709 219.338L220.709 211.468C220.628 211.259 220.505 211.069 220.347 210.911C220.188 210.752 219.998 210.629 219.789 210.548L211.919 207.548C211.623 207.434 211.368 207.233 211.189 206.972C211.009 206.71 210.913 206.401 210.913 206.083C210.913 205.766 211.009 205.457 211.189 205.195C211.368 204.934 211.623 204.733 211.919 204.618L219.789 201.618C219.998 201.541 220.189 201.42 220.348 201.263C220.506 201.106 220.63 200.917 220.709 200.708L223.709 192.838C223.821 192.539 224.022 192.281 224.285 192.099C224.547 191.917 224.859 191.82 225.179 191.82C225.498 191.82 225.81 191.917 226.073 192.099C226.336 192.281 226.537 192.539 226.649 192.838Z" fill="#FFC700"/>
<path d="M169.269 30.9985L171.099 35.8585C171.149 35.9878 171.226 36.1053 171.324 36.2034C171.422 36.3016 171.539 36.3782 171.669 36.4284L176.529 38.2584C176.701 38.3392 176.846 38.4672 176.948 38.6274C177.049 38.7877 177.103 38.9736 177.103 39.1634C177.103 39.3533 177.049 39.5392 176.948 39.6995C176.846 39.8597 176.701 39.9877 176.529 40.0685L171.669 41.8984C171.539 41.9487 171.422 42.0253 171.324 42.1235C171.226 42.2216 171.149 42.3391 171.099 42.4685L169.269 47.3285C169.188 47.5002 169.06 47.6455 168.9 47.7473C168.74 47.849 168.554 47.903 168.364 47.903C168.174 47.903 167.988 47.849 167.828 47.7473C167.668 47.6455 167.54 47.5002 167.459 47.3285L165.629 42.4685C165.579 42.3391 165.502 42.2216 165.404 42.1235C165.306 42.0253 165.188 41.9487 165.059 41.8984L160.199 39.9985C160.027 39.9177 159.882 39.7897 159.78 39.6294C159.678 39.4692 159.624 39.2833 159.624 39.0935C159.624 38.9036 159.678 38.7177 159.78 38.5575C159.882 38.3972 160.027 38.2692 160.199 38.1885L165.059 36.3585C165.188 36.3082 165.306 36.2316 165.404 36.1334C165.502 36.0353 165.579 35.9178 165.629 35.7885L167.419 30.9985C167.494 30.815 167.622 30.6582 167.787 30.5478C167.952 30.4374 168.146 30.3784 168.344 30.3784C168.542 30.3784 168.736 30.4374 168.901 30.5478C169.065 30.6582 169.194 30.815 169.269 30.9985Z" fill="#FFC700"/>
<path d="M28.5788 201.998L30.7288 207.718C30.7836 207.871 30.8711 208.01 30.985 208.126C31.099 208.242 31.2368 208.331 31.3888 208.388L37.1188 210.538C37.3336 210.623 37.518 210.77 37.6479 210.961C37.7778 211.152 37.8473 211.378 37.8473 211.608C37.8473 211.839 37.7778 212.065 37.6479 212.256C37.518 212.447 37.3336 212.594 37.1188 212.678L31.4188 214.798C31.2677 214.857 31.1309 214.947 31.0171 215.063C30.9034 215.178 30.8153 215.317 30.7588 215.468L28.6088 221.188C28.5283 221.407 28.3825 221.596 28.1911 221.73C27.9998 221.864 27.7721 221.935 27.5388 221.935C27.3054 221.935 27.0777 221.864 26.8864 221.73C26.695 221.596 26.5493 221.407 26.4688 221.188L24.3088 215.468C24.2539 215.316 24.1665 215.177 24.0525 215.061C23.9385 214.945 23.8008 214.856 23.6488 214.798L17.9188 212.648C17.7039 212.564 17.5196 212.417 17.3896 212.226C17.2597 212.035 17.1902 211.809 17.1902 211.578C17.1902 211.348 17.2597 211.122 17.3896 210.931C17.5196 210.74 17.7039 210.593 17.9188 210.508L23.6488 208.358C23.8015 208.302 23.9398 208.213 24.054 208.098C24.1681 207.982 24.2551 207.842 24.3088 207.688L26.4188 201.998C26.4997 201.777 26.6468 201.586 26.8399 201.451C27.0331 201.316 27.2631 201.244 27.4988 201.244C27.7344 201.244 27.9644 201.316 28.1576 201.451C28.3508 201.586 28.4978 201.777 28.5788 201.998Z" fill="#FFC700"/>
<path d="M119.269 189.458C122.026 170.889 128.651 153.106 138.714 137.258C148.777 121.41 162.055 107.851 177.689 97.4585C191.889 88.1485 207.689 81.6685 223.419 75.2485L249.329 64.6585C250.22 64.2917 251.184 64.1347 252.146 64.1996C253.107 64.2646 254.041 64.5496 254.875 65.0328C255.709 65.516 256.421 66.1845 256.956 66.9865C257.491 67.7885 257.834 68.7027 257.959 69.6585C263.419 114.798 243.509 161.458 210.419 192.938C192.599 209.938 169.589 223.798 144.829 226.938C119.559 230.228 116.169 211.218 119.269 189.458Z" fill="#40916C"/>
<path d="M109.259 193.588C107.82 178.346 103.199 163.575 95.6942 150.23C88.1891 136.886 77.967 125.265 65.6889 116.118C54.5289 107.918 41.9289 101.998 29.4189 95.9985L7.60886 85.6885C7.04058 85.4175 6.41787 85.28 5.78831 85.2865C5.15876 85.293 4.53903 85.4433 3.97649 85.7261C3.41394 86.0088 2.92348 86.4164 2.54259 86.9177C2.16171 87.419 1.90047 88.0007 1.77885 88.6185C-5.22115 125.498 8.97885 164.988 34.8689 192.408C48.6289 206.998 66.7689 219.368 86.7989 222.998C107.249 226.778 110.839 211.448 109.259 193.588Z" fill="#40916C"/>
<path d="M179.299 156.998C179.299 156.998 130.829 203.688 121.549 214.998C112.269 226.308 126.649 239.438 136.549 228.498C146.449 217.558 185.549 162.868 185.549 162.868L179.299 156.998Z" fill="white"/>
<path d="M205.729 159.928C197.789 170.858 186.449 171.878 177.889 165.658C169.329 159.438 166.799 148.348 174.739 137.418C182.679 126.488 201.469 115.208 210.019 121.418C218.569 127.628 213.659 148.998 205.729 159.928Z" fill="white"/>
<path d="M45.6989 124.828C44.9957 125.338 44.5201 126.103 44.3743 126.959C44.2285 127.815 44.424 128.695 44.9189 129.408L61.0289 151.838C61.4383 152.429 61.6006 153.156 61.481 153.864C61.3614 154.572 60.9694 155.205 60.3889 155.628C60.1098 155.845 59.7902 156.003 59.4489 156.094C59.1076 156.184 58.7515 156.206 58.4019 156.156C58.0522 156.107 57.716 155.988 57.4132 155.806C57.1104 155.624 56.8471 155.384 56.6389 155.098L40.5289 132.678C40.2774 132.335 39.9598 132.046 39.5948 131.828C39.2298 131.609 38.8249 131.466 38.4037 131.406C37.9826 131.347 37.5537 131.372 37.1425 131.481C36.7312 131.589 36.3458 131.779 36.0089 132.038C35.3035 132.547 34.8263 133.312 34.6804 134.169C34.5344 135.026 34.7315 135.906 35.2289 136.618L51.3389 159.048C51.7473 159.64 51.9079 160.368 51.7865 161.076C51.665 161.784 51.271 162.417 50.6889 162.838C50.4107 163.055 50.0918 163.213 49.7513 163.303C49.4108 163.394 49.0555 163.415 48.7067 163.365C48.3579 163.316 48.0225 163.197 47.7205 163.015C47.4186 162.834 47.1562 162.593 46.9489 162.308L30.8389 139.888C30.5865 139.545 30.268 139.256 29.9021 139.037C29.5363 138.819 29.1305 138.675 28.7085 138.616C28.2866 138.556 27.857 138.581 27.4449 138.69C27.0328 138.799 26.6466 138.989 26.3089 139.248C25.6073 139.76 25.1337 140.525 24.9898 141.381C24.8459 142.238 25.043 143.116 25.5389 143.828L43.1989 168.418L45.3489 171.418C46.1162 172.469 47.0854 173.355 48.1998 174.026C49.3141 174.696 50.5512 175.138 51.8384 175.324C53.1256 175.51 54.4371 175.438 55.6959 175.111C56.9546 174.783 58.1354 174.208 59.1689 173.418L67.6889 167.078C69.8286 165.512 71.2717 163.172 71.7107 160.556C72.1497 157.941 71.5498 155.258 70.0389 153.078L67.8789 150.078L50.2289 125.498C49.9787 125.153 49.6619 124.861 49.2972 124.639C48.9324 124.418 48.5271 124.272 48.105 124.209C47.683 124.147 47.2526 124.17 46.8394 124.276C46.4262 124.382 46.0384 124.57 45.6989 124.828Z" fill="white"/>
<path d="M56.8188 168.258C56.8188 168.258 88.0089 217.958 96.0388 227.898C104.069 237.838 117.809 227.898 110.249 217.498C102.689 207.098 62.9789 163.998 62.9789 163.998L56.8188 168.258Z" fill="white"/>
<path d="M133.549 1.35846C133.187 0.919621 132.73 0.56923 132.213 0.334057C131.695 0.0988837 131.131 -0.0148501 130.562 0.00155279C129.994 0.0179557 129.437 0.164063 128.934 0.4287C128.431 0.693337 127.994 1.0695 127.659 1.52845L115.219 18.4585C108.029 28.2385 100.799 38.0985 95.6089 49.0685C89.9494 61.2432 86.9084 74.4704 86.6827 87.8944C86.4571 101.318 89.0518 114.64 94.2989 126.998C97.7689 134.998 102.159 141.808 107.829 144.248C107.269 140.018 106.909 135.748 106.599 131.518C105.765 119.952 105.872 108.337 106.919 96.7885C107.944 85.5976 109.935 74.5163 112.869 63.6685C115.883 52.6931 120.406 42.1894 126.309 32.4585C126.699 31.7785 127.669 32.2985 127.499 32.9985C122.219 54.2985 117.499 76.2385 116.109 98.1885C115.452 108.649 115.566 119.144 116.449 129.588C116.859 134.388 117.549 139.118 118.259 143.868C120.285 142.943 122.181 141.756 123.899 140.338C137.819 129.158 146.659 112.088 151.199 95.0985C159.719 63.1985 154.279 26.8585 133.549 1.35846Z" fill="#40916C"/>
<path d="M192.939 56.8985C184.718 57.3531 176.896 60.5904 170.759 66.0785C166.059 70.4385 157.499 83.9085 161.499 91.0085C162.165 89.4285 162.909 87.8785 163.729 86.3585C165.625 82.8629 167.863 79.5635 170.409 76.5085C172.956 73.3767 175.917 70.6048 179.209 68.2685C180.779 67.1785 182.389 66.1385 184.049 65.1985C185.449 64.3985 187.359 63.0985 189.049 63.1985C189.068 63.1964 189.088 63.2001 189.105 63.2091C189.122 63.2181 189.137 63.2319 189.146 63.2489C189.156 63.2659 189.16 63.2854 189.159 63.3048C189.158 63.3243 189.151 63.3429 189.139 63.3585C188.339 64.6485 186.529 65.5685 185.329 66.4585C183.727 67.6397 182.195 68.9118 180.739 70.2685C177.977 72.8183 175.369 75.5297 172.929 78.3885C170.504 81.2996 168.371 84.4413 166.559 87.7685C165.617 89.4695 164.773 91.2223 164.029 93.0185C170.029 94.3685 182.839 84.3085 185.969 81.2285C191.546 75.8256 195.339 68.8473 196.839 61.2285C196.94 60.6748 196.913 60.1053 196.759 59.5638C196.605 59.0223 196.33 58.5232 195.953 58.105C195.576 57.6868 195.109 57.3605 194.586 57.1514C194.064 56.9422 193.5 56.8557 192.939 56.8985Z" fill="#204836"/>
<path d="M68.0589 88.5184C66.1692 85.4339 64.1058 82.4591 61.8789 79.6084C59.6989 76.7884 56.9689 74.3884 54.8789 71.5284C54.6789 71.2584 54.8788 70.7584 55.2888 70.9384C58.6488 72.5784 61.5689 75.6484 64.1689 78.3084C66.966 81.2381 69.4403 84.46 71.5489 87.9184C74.8216 93.1772 77.3997 98.8376 79.2189 104.758C82.9889 97.3084 77.0589 83.0184 73.2189 77.8284C67.7389 70.4984 59.4088 65.5884 50.4788 63.4884C49.9802 63.3801 49.4638 63.3841 48.9669 63.5C48.47 63.616 48.0051 63.841 47.606 64.1588C47.2068 64.4766 46.8833 64.8792 46.6589 65.3375C46.4346 65.7958 46.315 66.2982 46.3089 66.8084C46.2567 75.4779 48.9407 83.9429 53.9788 90.9984C56.8488 95.0784 69.5488 109.378 75.9788 107.758C74.3301 100.98 71.6595 94.4929 68.0589 88.5184Z" fill="#204836"/>
</svg>
