<svg width="198" height="232" viewBox="0 0 198 232" fill="none" xmlns="http://www.w3.org/2000/svg">
<path d="M167.532 100.686C168.988 97.9811 169.774 94.9661 169.824 91.8942C169.874 88.8224 169.187 85.7833 167.82 83.0323C166.62 80.6321 164.221 78.2318 164.389 75.4116C164.369 75.2689 164.387 75.1236 164.44 74.9898C164.493 74.8561 164.581 74.7385 164.693 74.6489C164.806 74.5592 164.94 74.5005 165.082 74.4785C165.225 74.4565 165.37 74.472 165.504 74.5235C169.379 74.8955 172.702 80.212 173.901 83.4884C175.041 76.1076 176.3 68.2229 178.699 61.1542C178.782 60.8093 178.976 60.5013 179.251 60.2781C179.482 60.1725 179.742 60.1506 179.987 60.2163C180.233 60.2821 180.447 60.4312 180.594 60.6381C180.874 61.0696 181.039 61.5652 181.074 62.0783C181.926 68.3429 180.702 74.6915 179.491 80.9081L183.329 69.507C184.529 65.9787 185.728 62.3063 188.211 59.546C188.511 59.198 188.943 58.838 189.411 58.97C189.879 59.102 190.023 59.9421 189.939 60.5422C188.863 67.81 187.26 74.9897 185.141 82.0242C187.657 77.2975 190.516 72.761 193.693 68.4509C194.149 67.8509 194.785 67.2508 195.517 67.3588C196.716 67.6108 196.464 69.399 195.924 70.4911C193.437 75.5556 190.93 80.6081 188.403 85.6485L194.401 79.1919C195.313 78.1958 197.016 77.2237 197.796 78.3278C197.951 78.6614 198.02 79.0292 197.995 79.3966C197.97 79.764 197.852 80.1189 197.652 80.428C195.708 84.5204 191.834 87.4247 189.819 91.4691C186.7 97.7217 185.764 103.77 179.707 108.211" fill="#FFBF9C"/>
<path d="M68.6433 153.119C59.359 166.32 39.8549 171.037 25.5926 163.584C11.3303 156.131 4.00121 137.47 9.495 122.3C10.5986 119.264 12.146 116.3 12.2059 113.059C12.3019 107.239 7.65974 102.606 5.0088 97.4577C1.26631 90.149 1.98604 83.2003 5.84848 76.2397C8.72736 71.0704 12.6099 66.5291 17.2679 62.8824C20.9864 59.9901 25.3407 57.5059 27.4518 53.2815C29.563 49.0571 28.9032 43.8486 28.5794 39.0361C27.9916 30.2753 29.0232 20.9264 34.2171 13.8337C38.1516 8.48116 44.1372 4.91681 50.4586 2.87662C56.4949 1.08021 62.7538 0.142956 69.0512 0.0923763C71.7021 0.00836826 74.3531 0.00835947 77.016 0.00835947H82.1619C84.8605 -0.0317319 87.5592 0.0724016 90.2467 0.320365C105.097 2.04853 115.041 11.9735 118.783 26.1349C119.791 29.9392 120.307 33.9476 122.154 37.428C127.576 47.5809 141.562 49.1891 150.055 56.9538C153.574 60.2845 156.003 64.6032 157.022 69.3416C158.042 74.08 157.603 79.0161 155.764 83.5004C153.497 88.6969 149.191 93.8214 150.666 99.2939C151.494 102.366 154.001 104.67 155.525 107.455C159.123 114.079 156.808 122.444 152.934 128.937C146.864 139.15 135.505 147.635 123.833 145.414" fill="#142428"/>
<path d="M58.4474 10.7374C62.7664 8.42561 67.4476 6.86715 72.2899 6.12894C78.6448 4.92937 85.2048 5.45142 91.2903 7.64106C100.251 11.0134 105.685 16.8099 109.163 25.6428C111.778 32.3634 112.678 38.8441 113.769 45.9247C115.101 54.1058 114.505 62.4849 112.03 70.3951C111.359 72.6609 110.3 74.7928 108.899 76.6957C107.372 78.5 105.531 80.0125 103.465 81.1601C97.3359 84.8565 89.383 86.4646 82.2579 86.9687C76.8241 87.3527 70.8145 87.4607 65.8965 85.0125C63.562 83.8506 61.3584 82.4425 59.3231 80.8121C53.2394 75.8016 48.8838 69.0047 46.8721 61.3822C44.7609 52.9814 42.2779 45.2047 42.6618 36.3718C42.9594 28.7913 45.9347 21.5622 51.0584 15.9699C52.9536 13.7256 55.8804 12.1655 58.4474 10.7374Z" fill="#FFBF9C"/>
<path d="M92.6217 34.9197C91.7221 38.4001 90.9184 41.9644 93.4014 44.9527C94.8408 46.7048 96.6881 48.121 97.4318 50.3652C98.7273 54.2896 97.3718 58.766 92.8736 59.5581C92.0939 59.6901 91.7581 58.502 92.5498 58.358C96.7961 57.6139 97.4438 53.3055 95.8844 49.9572C94.9848 48.001 93.0896 46.8009 91.878 45.0727C89.6949 41.9164 90.5225 38.124 91.4342 34.6197C91.4771 34.4606 91.5815 34.325 91.7244 34.2428C91.8672 34.1607 92.0368 34.1387 92.1959 34.1817C92.355 34.2246 92.4905 34.329 92.5726 34.472C92.6547 34.6149 92.6767 34.7846 92.6337 34.9437L92.6217 34.9197Z" fill="#1F333A"/>
<path d="M84.4409 61.6103C87.7996 63.0264 91.5301 63.1584 95.1766 63.2664C95.3686 65.0786 94.085 66.7108 92.6696 67.8629C92.0501 68.4538 91.284 68.8682 90.4505 69.063C89.7031 69.1026 88.9577 68.9555 88.2813 68.6349C87.6049 68.3144 87.0189 67.8304 86.5761 67.2268C85.2381 65.6781 84.4236 63.7459 84.249 61.7063" fill="white"/>
<path d="M100.035 46.0087C100.227 48.193 101.234 49.8851 102.374 49.7891C103.513 49.6931 104.233 47.845 104.041 45.6607C103.849 43.4765 102.842 41.7964 101.642 41.8924C100.442 41.9884 99.9027 43.8365 100.035 46.0087Z" fill="#322B23"/>
<path d="M77.6877 49.7652C77.8796 51.9494 78.8872 53.6415 80.0867 53.5455C81.2862 53.4495 81.934 51.6013 81.742 49.4171C81.5501 47.2329 80.5425 45.5528 79.403 45.6488C78.2634 45.7448 77.5077 47.593 77.6877 49.7652Z" fill="#322B23"/>
<path d="M97.3239 28.3191C97.06 30.3833 99.9028 32.4475 103.657 32.9275C107.412 33.4076 110.687 32.1115 110.95 30.0473C111.214 27.9831 108.371 25.9069 104.617 25.4388C100.862 24.9708 97.6357 26.2429 97.3239 28.3191Z" fill="#322B23"/>
<path d="M68.5833 33.6716C69.243 35.6398 72.6976 36.2759 76.2962 35.0877C79.8948 33.8996 82.2938 31.3074 81.6221 29.3392C80.9503 27.371 77.5077 26.7229 73.9092 27.923C70.3106 29.1232 67.9356 31.6914 68.5833 33.6716Z" fill="#322B23"/>
<path d="M78.4434 2.98464C81.9819 8.33715 81.2982 15.4179 79.4869 21.5744C78.6033 25.1181 76.9668 28.4295 74.6889 31.2834C73.5347 32.7078 72.0696 33.8487 70.4062 34.6185C68.7427 35.3882 66.925 35.7663 65.0927 35.7238C65.4145 39.1505 64.804 42.6005 63.3258 45.7083C61.8476 48.8161 59.5568 51.4661 56.6961 53.3775C52.6177 56.0778 45.6605 58.37 41.3062 54.9497C37.7077 52.0934 37.4678 46.4288 37.3598 42.2284C37.1799 35.4358 37.3598 28.3311 40.8384 22.3065C44.9528 15.2258 52.4258 10.9774 59.5149 7.41307C65.5125 4.36477 72.4218 1.48452 78.9112 3.39271" fill="#142428"/>
<path d="M117.152 154.403C116.924 154.331 117.704 151.811 118.063 147.635C118.527 142.207 117.836 136.742 116.036 131.601C115.005 128.613 113.493 125.936 112.318 123.356C111.189 121.09 110.424 118.66 110.051 116.156C109.812 114.435 109.947 112.683 110.447 111.019C110.83 109.819 111.238 109.303 111.322 109.339C111.406 109.375 110.279 111.895 111.046 116C111.538 118.385 112.366 120.688 113.505 122.84C114.976 125.534 116.27 128.32 117.38 131.181C118.413 134.109 119.062 137.159 119.311 140.254C119.498 142.776 119.414 145.311 119.059 147.815C118.423 152.003 117.296 154.403 117.152 154.403Z" fill="#222221"/>
<path d="M34.6129 156.239L13.3694 138.358C13.3694 138.358 42.3138 102.798 66.2442 99.858L70.8144 73.8515L88.7352 82.5883L87.1279 100.59C93.7773 99.8796 100.499 100.822 106.697 103.335C112.895 105.847 118.377 109.851 122.658 114.991L146.504 135.801L167.1 94.1334C173.727 95.7107 180.074 98.2928 185.92 101.79C184.049 115.387 177.812 149.195 160.419 166.812C158.402 168.845 155.794 170.185 152.969 170.643C150.144 171.1 147.247 170.649 144.693 169.357C139.331 166.632 131.018 161.484 118.303 151.811L116.888 160.308L139.799 204.712C139.799 204.712 99.1231 256.221 39.279 217.289L57.6797 168.349L48.7792 141.598L34.6129 156.239Z" fill="#FFBF9C"/>
<path d="M34.6129 156.239L13.3694 138.358C13.3694 138.358 37.8876 108.259 60.4506 101.154C62.5602 103.638 65.197 105.621 68.169 106.957C71.1409 108.293 74.3733 108.949 77.6307 108.878C80.8882 108.807 84.0888 108.01 86.9995 106.545C89.9102 105.08 92.4579 102.984 94.457 100.41C99.8974 100.796 105.203 102.285 110.05 104.785C114.898 107.285 119.188 110.746 122.658 114.955L146.504 135.801L167.1 94.1334C173.727 95.7107 180.074 98.2928 185.92 101.79C184.049 115.387 177.812 149.195 160.419 166.812C158.402 168.845 155.794 170.185 152.969 170.643C150.144 171.1 147.247 170.649 144.693 169.357C139.331 166.632 131.018 161.484 118.303 151.811L116.888 160.308L139.799 204.712C139.799 204.712 99.1231 256.221 39.279 217.289L57.6797 168.349L48.7792 141.598L34.6129 156.239Z" fill="#40916C"/>
<path d="M34.301 204.964C36.6056 207.5 39.5982 209.31 42.9135 210.173C45.0768 210.854 47.4142 210.722 49.4869 209.801C51.3167 208.656 52.7556 206.982 53.6132 205C55.8324 200.668 57.2958 195.651 61.1102 192.603C62.161 191.885 63.1702 191.107 64.1331 190.275C64.6489 189.747 66.2922 187.43 65.1286 186.842C64.337 186.446 62.6216 187.73 61.9739 188.042C59.299 189.423 55.9763 191.391 54.5609 194.223C55.7593 191.814 57.1514 189.506 58.7232 187.322C60.2346 185.234 62.0099 183.482 62.9695 181.046C63.0465 180.894 63.0718 180.721 63.0415 180.554C62.9455 180.194 62.4417 180.17 62.0699 180.242C60.7831 180.486 59.559 180.988 58.4713 181.718C57.7011 182.372 56.9757 183.078 56.3002 183.83C54.4426 185.573 52.8287 187.559 51.5021 189.735C52.0066 186.327 53.5576 183.16 55.9403 180.674C56.5161 180.026 57.2718 179.474 57.7876 178.742C58.2299 178.005 58.6303 177.243 58.9871 176.461C59.1362 176.243 59.2308 175.992 59.263 175.729C59.2745 175.566 59.2428 175.402 59.1713 175.255C59.0997 175.107 58.9907 174.981 58.8552 174.889C57.9795 174.301 55.9284 176.089 55.2566 176.665C54.0243 177.704 52.9494 178.917 52.0659 180.266C50.0987 183.218 48.8632 186.59 47.1358 189.699C46.9679 185.786 49.163 182.234 50.5545 178.574C50.8664 177.745 50.9503 176.497 50.0867 176.269C49.8256 176.247 49.5632 176.292 49.324 176.399C49.0848 176.506 48.8767 176.672 48.7192 176.881C44.6888 180.95 45.3966 187.058 44.4489 192.219C44.424 192.474 44.3238 192.717 44.1611 192.915C43.8372 193.215 43.3214 193.083 42.9615 192.915C41.4142 192.207 39.8188 191.031 38.1635 191.523" fill="#FFBF9C"/>
<path d="M40.8744 150.539C40.5985 150.263 43.5254 146.711 47.4238 142.594C51.3223 138.478 54.7049 135.393 54.9928 135.621C55.2807 135.849 52.3538 139.45 48.4554 143.566C44.5569 147.683 41.1623 150.803 40.8744 150.539Z" fill="#2B6148"/>
<path d="M78.5993 108.799C79.5843 108.728 80.5627 108.584 81.5262 108.367C82.004 110.55 81.6307 112.834 80.4826 114.751C79.1978 116.833 77.3403 118.5 75.1327 119.552C73.8066 120.263 72.3495 120.696 70.8504 120.824C69.1845 120.851 67.5374 120.468 66.0543 119.708C64.5713 118.949 63.2977 117.836 62.3458 116.468C60.4634 113.696 59.4601 110.421 59.467 107.071C59.425 105.14 59.5454 103.209 59.8269 101.298L60.4506 101.082C62.7051 103.646 65.5064 105.67 68.6476 107.006C71.7888 108.342 75.1898 108.954 78.5993 108.799Z" fill="white"/>
<path d="M80.8423 108.571C86.2053 107.547 91.0304 104.651 94.4569 100.398C96.4096 100.553 98.3493 100.842 100.263 101.262C100.804 103.162 101.205 105.1 101.462 107.059C101.798 109.387 101.99 111.859 100.91 113.959C100.259 115.071 99.3342 115.997 98.2231 116.648C97.1121 117.3 95.8524 117.655 94.5649 117.68C91.976 117.698 89.4435 116.923 87.3078 115.459C84.6258 113.722 82.4068 111.358 80.8423 108.571Z" fill="white"/>
<path d="M47.6516 56.3298C46.5337 55.3163 45.1514 54.6408 43.6652 54.3816C42.1789 54.1225 40.6497 54.2903 39.255 54.8656C37.8719 55.494 36.671 56.4633 35.7647 57.6829C34.8583 58.9024 34.2763 60.3322 34.0731 61.8383C33.3414 67.2748 37.3838 71.3432 41.822 73.6954C47.2558 76.5877 52.9295 77.9438 56.9119 72.0513" fill="#FFBF9C"/>
<path d="M50.3866 73.2754C49.9668 66.6387 46.5721 60.2542 39.5909 58.934C38.8112 58.79 39.1471 57.5899 39.9268 57.7339C47.4598 59.162 51.1783 66.1347 51.6341 73.2634C51.6341 74.0555 50.4346 74.0435 50.4346 73.2634L50.3866 73.2754Z" fill="#1F333A"/>
<path d="M46.896 62.2704C45.9024 63.5647 45.4088 65.1742 45.5058 66.8033C45.6027 68.4324 46.2837 69.9719 47.4238 71.1392C47.9755 71.7032 47.0999 72.5793 46.5481 72.0153C45.1851 70.6114 44.3798 68.759 44.2827 66.8043C44.1856 64.8496 44.8032 62.9264 46.0203 61.3943C46.5121 60.7702 47.3758 61.6583 46.896 62.2704Z" fill="#1F333A"/>
<path d="M117.128 157.175C116.912 157.103 117.752 154.523 118.471 150.251C118.901 147.756 119.154 145.233 119.227 142.702C119.272 141.225 119.228 139.746 119.095 138.274C118.872 136.72 118.47 135.198 117.896 133.737C116.696 130.689 115.185 127.917 113.961 125.336C112.802 122.992 111.967 120.501 111.478 117.932C111.158 116.186 111.158 114.397 111.478 112.651C111.718 111.451 112.03 110.803 112.114 110.827C112.198 110.851 111.502 113.551 112.51 117.74C113.118 120.178 114.016 122.535 115.185 124.76C116.7 127.531 118.069 130.379 119.287 133.293C119.88 134.868 120.283 136.507 120.486 138.178C120.599 139.72 120.599 141.268 120.486 142.81C120.356 145.401 119.999 147.975 119.419 150.503C118.459 154.751 117.284 157.235 117.128 157.175Z" fill="#2B6148"/>
<path d="M1.98595 152.999C7.67168 144.238 20.1467 126.921 32.7177 119.6C49.8948 109.651 40.8264 149.807 40.8264 149.807L29.9468 160.476L44.1851 192.255C41.7923 197.98 38.7453 203.409 35.1047 208.432C25.7004 200.284 9.38697 184.166 0.95435 164.304C0.18045 162.481 -0.130344 160.494 0.0496559 158.522C0.229656 156.549 0.894867 154.652 1.98595 152.999Z" fill="#40916C"/>
</svg>
